HIERARCHY
ROOT hip
{
  OFFSET 0 0 0
  CHANNELS 6 Xposition Yposition Zposition Zrotation Yrotation Xrotation
  JOINT abdomen
  {
    OFFSET 0 20.6881 -0.73152
    CHANNELS 3 Zrotation Xrotation Yrotation
    JOINT chest
    {
      OFFSET 0 11.7043 -0.48768
      CHANNELS 3 Zrotation Xrotation Yrotation
      JOINT neck
      {
        OFFSET 0 22.1894 -2.19456
        CHANNELS 3 Zrotation Xrotation Yrotation
        JOINT head
        {
          OFFSET -0.24384 7.07133 1.2192
          CHANNELS 3 Zrotation Xrotation Yrotation
          JOINT leftEye
          {
            OFFSET 4.14528 8.04674 8.04672
            CHANNELS 3 Zrotation Xrotation Yrotation
            End Site
            {
              OFFSET 1 0 0
            }
          }
          JOINT rightEye
          {
            OFFSET -3.6576 8.04674 8.04672
            CHANNELS 3 Zrotation Xrotation Yrotation
            End Site
            {
              OFFSET 1 0 0
            }
          }
        }
      }
      JOINT rCollar
      {
        OFFSET -2.68224 19.2634 -4.8768
        CHANNELS 3 Zrotation Xrotation Yrotation
        JOINT rShldr
        {
          OFFSET -8.77824 -1.95073 1.46304
          CHANNELS 3 Zrotation Xrotation Yrotation
          JOINT rForeArm
          {
            OFFSET -28.1742 -1.7115 0.48768
            CHANNELS 3 Zrotation Xrotation Yrotation
            JOINT rHand
            {
              OFFSET -22.5879 0.773209 7.07136
              CHANNELS 3 Zrotation Xrotation Yrotation
              JOINT rThumb1
              {
                OFFSET -1.2192 -0.487915 3.41376
                CHANNELS 3 Zrotation Xrotation Yrotation
                JOINT rThumb2
                {
                  OFFSET -3.37035 -0.52449 3.41376
                  CHANNELS 3 Zrotation Xrotation Yrotation
                  End Site
                  {
                    OFFSET -1.78271 -1.18214 1.43049
                  }
                }
              }
              JOINT rIndex1
              {
                OFFSET -7.75947 0.938293 5.60832
                CHANNELS 3 Zrotation Xrotation Yrotation
                JOINT rIndex2
                {
                  OFFSET -2.54057 -0.884171 1.56538
                  CHANNELS 3 Zrotation Xrotation Yrotation
                  End Site
                  {
                    OFFSET -1.62519 -0.234802 1.16502
                  }
                }
              }
              JOINT rMid1
              {
                OFFSET -8.24714 1.18213 3.41376
                CHANNELS 3 Zrotation Xrotation Yrotation
                JOINT rMid2
                {
                  OFFSET -3.10165 -0.590103 1.0647
                  CHANNELS 3 Zrotation Xrotation Yrotation
                  End Site
                  {
                    OFFSET -2.48547 -0.328903 0.83742
                  }
                }
              }
              JOINT rRing1
              {
                OFFSET -8.82822 0.546677 1.51678
                CHANNELS 3 Zrotation Xrotation Yrotation
                JOINT rRing2
                {
                  OFFSET -2.60934 -0.819778 -0.0198488
                  CHANNELS 3 Zrotation Xrotation Yrotation
                  End Site
                  {
                    OFFSET -2.33842 -0.294052 0.168128
                  }
                }
              }
              JOINT rPinky1
              {
                OFFSET -8.27202 -0.0477905 -0.4584
                CHANNELS 3 Zrotation Xrotation Yrotation
                JOINT rPinky2
                {
                  OFFSET -1.82734 -0.647385 -0.700984
                  CHANNELS 3 Zrotation Xrotation Yrotation
                  End Site
                  {
                    OFFSET -1.69225 -0.51767 -0.607171
                  }
                }
              }
            }
          }
        }
      }
      JOINT lCollar
      {
        OFFSET 2.68224 19.2634 -4.8768
        CHANNELS 3 Zrotation Xrotation Yrotation
        JOINT lShldr
        {
          OFFSET 8.77824 -1.95073 1.46304
          CHANNELS 3 Zrotation Xrotation Yrotation
          JOINT lForeArm
          {
            OFFSET 28.1742 -1.7115 0.48768
            CHANNELS 3 Zrotation Xrotation Yrotation
            JOINT lHand
            {
              OFFSET 22.5879 0.773209 7.07136
              CHANNELS 3 Zrotation Xrotation Yrotation
              JOINT lThumb1
              {
                OFFSET 1.2192 -0.487915 3.41376
                CHANNELS 3 Zrotation Xrotation Yrotation
                JOINT lThumb2
                {
                  OFFSET 3.37035 -0.52449 3.41376
                  CHANNELS 3 Zrotation Xrotation Yrotation
                  End Site
                  {
                    OFFSET 1.78271 -1.18214 1.43049
                  }
                }
              }
              JOINT lIndex1
              {
                OFFSET 7.75947 0.938293 5.60832
                CHANNELS 3 Zrotation Xrotation Yrotation
                JOINT lIndex2
                {
                  OFFSET 2.54057 -0.884171 1.56538
                  CHANNELS 3 Zrotation Xrotation Yrotation
                  End Site
                  {
                    OFFSET 1.62519 -0.234802 1.16502
                  }
                }
              }
              JOINT lMid1
              {
                OFFSET 8.24714 1.18213 3.41376
                CHANNELS 3 Zrotation Xrotation Yrotation
                JOINT lMid2
                {
                  OFFSET 3.10165 -0.590103 1.0647
                  CHANNELS 3 Zrotation Xrotation Yrotation
                  End Site
                  {
                    OFFSET 2.48547 -0.328903 0.83742
                  }
                }
              }
              JOINT lRing1
              {
                OFFSET 8.82822 0.546677 1.51678
                CHANNELS 3 Zrotation Xrotation Yrotation
                JOINT lRing2
                {
                  OFFSET 2.60934 -0.819778 -0.0198488
                  CHANNELS 3 Zrotation Xrotation Yrotation
                  End Site
                  {
                    OFFSET 2.33842 -0.294052 0.168128
                  }
                }
              }
              JOINT lPinky1
              {
                OFFSET 8.27202 -0.0477905 -0.4584
                CHANNELS 3 Zrotation Xrotation Yrotation
                JOINT lPinky2
                {
                  OFFSET 1.82734 -0.647385 -0.700984
                  CHANNELS 3 Zrotation Xrotation Yrotation
                  End Site
                  {
                    OFFSET 1.69225 -0.51767 -0.607171
                  }
                }
              }
            }
          }
        }
      }
    }
  }
  JOINT rButtock
  {
    OFFSET -8.77824 4.35084 1.2192
    CHANNELS 3 Zrotation Xrotation Yrotation
    JOINT rThigh
    {
      OFFSET 0 -1.70687 -2.19456
      CHANNELS 3 Zrotation Xrotation Yrotation
      JOINT rShin
      {
        OFFSET 0 -36.8199 0.73152
        CHANNELS 3 Zrotation Xrotation Yrotation
        JOINT rFoot
        {
          OFFSET 0.73152 -45.1104 -5.12064
          CHANNELS 3 Zrotation Xrotation Yrotation
          End Site
          {
            OFFSET -1.1221 -3.69964 12.103
          }
        }
      }
    }
  }
  JOINT lButtock
  {
    OFFSET 8.77824 4.35084 1.2192
    CHANNELS 3 Zrotation Xrotation Yrotation
    JOINT lThigh
    {
      OFFSET 0 -1.70687 -2.19456
      CHANNELS 3 Zrotation Xrotation Yrotation
      JOINT lShin
      {
        OFFSET 0 -36.8199 0.73152
        CHANNELS 3 Zrotation Xrotation Yrotation
        JOINT lFoot
        {
          OFFSET -0.73152 -45.1104 -5.12064
          CHANNELS 3 Zrotation Xrotation Yrotation
          End Site
          {
            OFFSET 1.1221 -3.69964 12.103
          }
        }
      }
    }
  }
}
MOTION
Frames:	4
Frame Time:	0.03333
0.21513896062970161 61.349111795425415 0.33883419819176197 -5.915482552401827 5.992362734812668 2.9147691410377785 -2.3674823045439353 14.89338116446913 3.8812379203868206 2.6825433495875797 -9.71973143423791 1.1506423757192032 -4.908106062566286 15.229073009344209 -3.3038280286625175 8.706059644421734 -24.986373899111772 -4.779359131145661 0.04407641133328232 -0.03947785307243901 0.050521135042225704 0.004849114145591709 -0.003011793258858279 -0.036807035663552465 0.06529979677628212 -0.04277752813264275 -0.04001980256966374 47.95702920055855 29.79582257487228 15.672391560065764 -23.938814125728577 -30.122165598320905 67.09173244336299 -4.7792319188723695 -11.546632867392486 -5.257555615977063 -0.009050000650266895 -0.0219250673182996 0.0315339428613175 -0.011693230498208938 -0.06950072330159697 -0.05282788469205206 -0.03524911220255487 -0.026251618631532445 -0.027112542632071395 7.598913300719346 5.448704009428571 0.4250239957513817 0.006477794097522405 -0.02745378528630758 -0.03607551173127352 2.858142817393553 1.0009672110731305 0.1843750069093969 0.005496808177979325 -0.010535353351333106 0.07347864148246827 10.113587462537525 0.6923470344168084 0.05264376306915262 -0.019320630810409117 -0.007145551810596933 0.049045534037025273 2.208655433461986 -0.7233529983191986 -0.197264774492401 0.013083494159423878 0.11839967507573143 -0.042058223835675784 -56.903583220751024 31.97933501478239 -25.247712304682093 23.028735815053984 -28.10814430266466 -63.279305263769466 5.484963776184876 -14.816290526854488 4.437379243365939 -0.009952812920325065 0.08427039373194131 0.008291742930689698 -0.008781275395109206 -0.04202634072607357 -0.057672409804295166 -0.058390113275675413 0.0039359231896462935 -0.0018559971852451836 -7.6670119942916655 5.389698005188831 -0.41032062618075416 -0.003970234218055029 -0.07561419617600795 -0.009718798899972791 -2.7954527798702373 0.9437939386867752 -0.046063035886404 -0.014234060869453682 0.05337472671247621 -0.08315600568017141 -10.141350473966336 0.7847537309149688 0.007361449821392805 -0.014667477726951981 0.009168755228375203 -0.05649985842287438 -2.2561346397036837 -0.752909094487695 0.24702579752541154 -0.0850562923733159 -0.026740030518041247 -0.04033373447237979 -32.03377162246739 -36.318636156761535 -28.865537149538202 -6.11647154090003 62.36595870757702 6.999849361448575 -4.622690813284847 -10.232301272954224 -10.15746630531298 -0.007493517932297349 -0.027379433607910966 -0.03685015123268817 37.56937698247968 -34.39231790514283 31.703743711961547 5.83740239113118 63.63994608213531 -6.87918040938196 5.036785545868857 -10.389752501248651 13.611521143118754
0.34723924472928047 62.98378109931946 0.9386958554387093 -6.482074064811065 6.10526320047204 2.040844515743943 -2.7034588829300397 14.327476086071478 3.7144686065172046 2.8799618566971588 -9.36040884238188 1.179359372475993 -5.065485573874427 15.2723507954727 -4.038178592040789 8.752522006250745 -24.804952121925187 -5.649010405896596 -0.02958928661899438 -0.0792998302851703 0.04275851832880043 0.06779069472943437 0.1311058012835121 -0.0033763546058077094 0.053114045605891794 -0.192655570741406 -0.014304140344565732 50.650948016765376 30.53194279757582 16.01340241475699 -23.918386737468364 -28.913508983173788 65.93513553006972 -4.240355179680928 -9.880988785447327 -4.642013845333636 -0.04356230619610664 -0.016458194578791975 -0.04897739222788382 -0.028351154749370895 -0.10882591097391563 -0.019247793246213278 -0.005279949671831419 0.038667194995323124 -0.043689038221722105 7.866176895394653 5.575148740212078 0.4731483880653809 0.009583822622585704 0.013454031921897069 -0.06848668033368809 2.9226631321710204 0.9112929104080927 0.15587678964945917 0.06106834784311377 -0.004484019190113371 -0.029603427245010423 10.405323625008988 0.7516123724015975 0.08763066004060246 0.018504369843739703 -0.02199128813673699 -0.09829626723384183 2.168563930581304 -0.7876700082471526 -0.17422110361495313 0.07632949840900811 0.08420806825576493 0.044162188904304164 -59.90856592723315 32.24031654296858 -26.7196044104415 23.031100768054102 -27.24232732535904 -62.38319127485296 4.872257814707474 -13.278061916328623 3.928744020498375 0.040187819220150106 0.04712355615718071 0.082972604428786 0.061767321655129374 0.054604560969475184 -0.03222205773976984 -0.08950269216214131 -0.001880249692884018 -0.029312610596755974 -7.74899219357839 5.411537535059947 -0.4306872631099537 0.06318266491720295 -0.018239433209137252 0.016370816182183414 -2.9075839954743365 0.9824238878067806 -0.1337368915374215 -0.04099250088174223 -0.022331730378179815 -0.054569209404435076 -10.327629369426447 0.861110016472128 -0.042727849178601486 0.09288217504794974 -0.03812155359408902 -0.001996229506642008 -2.305286388518388 -0.6799233472033784 0.22325183001530124 0.0009731952350210356 -0.05932702313073075 -0.021170678260556984 -32.85954149312193 -35.97011209398329 -27.47389122878998 -4.678180123875677 62.319212892897454 6.11903627693337 -4.4916092378285475 -9.963673347992207 -10.237630528054128 0.029892429624266584 -0.0004845098741411682 -0.025910749503266498 38.045553865750875 -33.18536883728822 30.109396559667566 4.40698191335162 62.94140214515059 -5.792507130829863 5.117907702641098 -10.325447977760273 14.437425056235758
0.7835318334400654 62.79447078704834 1.4622201677411795 -16.969299341931322 -22.926573260543517 3.756906279377786 5.804326346301747 12.208104245109663 10.366178103328352 -0.1973298213720748 -8.007363735727987 2.6747748631803363 -3.0441643000993195 12.730551391139462 0.35202581538834155 5.748973212607495 -23.567185240535476 2.1064288459280514 -0.014182727728972805 0.11220207881673822 -0.10850978794117774 0.11635750187475051 0.23443023500482046 0.190191526637471 0.10807044135890197 -0.1306658410514281 -0.021727808920429123 49.82583384427116 41.54811243817385 10.747867003395235 -23.818906739754418 -24.52314534695963 56.90648263605369 -0.13253683263633556 2.9326027649606816 1.0062230416394553 0.06890860459749505 -0.09073458081197658 -0.33698624576407593 -0.23262268947400006 -0.01672780028802236 -0.044080333355969795 -0.15388650987791447 -0.09215558032445657 -0.11558846526288938 7.474631178581794 5.565001640426378 0.6339352566348594 -0.3535136226886407 -0.06931644159613885 -0.1004034072732172 2.681939518176268 1.0937677106656245 0.27186073887354817 -0.023328724553590113 -0.0033559707600034528 0.008955551940650312 10.19626434111959 0.6275019654886479 0.24749838791903825 -0.105445367541156 -0.016076130872094387 -0.05340060672612821 1.9954888580038848 -0.7182410286122672 0.025427780423752547 0.1576924727103454 0.07268265763989733 0.02047781426619737 -59.133482890409276 26.023725954780385 -17.528118099065086 20.055132705166184 -18.609092865415274 -46.589488724938604 -1.1919204105247638 -0.29845279974652345 1.9281890831210449 0.07672586282428043 0.15397172715998095 0.005593177878299973 0.007882038302194715 -0.015150880363395668 0.23581398864198272 -0.11750966941036703 0.02227652857586436 -0.19685149468676233 -7.93063168304477 5.47060415722857 -0.37017138685724404 0.31941929270349406 -0.27097489535470926 -0.23403544473470844 -3.2306026377878685 0.852576228712726 -0.2646874127390216 0.0004166949002236685 0.10548736253238099 -0.223584241448384 -10.383346637580825 0.7180474887988326 -0.058694697023975666 0.17360243788653806 0.05395873456693874 -0.06679999713466518 -2.5821730794040074 -0.5532118121554175 0.14509418878625688 -0.17632629598319802 0.00974849421460648 0.028604405357190277 -2.772048496348954 -3.110025466388225 -2.195579249739408 0.7499397764677378 43.308436602393726 0.6691910389440257 -10.224572913908355 -15.839218930543325 -27.051085443693268 -0.05060161654859814 -0.1338406517158675 -0.08719195378856137 59.134186399893785 -54.34735760311707 51.058269763013676 4.479652137912794 68.88803121394132 -3.9076135496404714 0.12732230337014816 -1.3013036489266965 4.1345585376451925
0.8678038604557514 66.38994216918945 2.007035445421934 -7.897757982569499 -24.414149188184567 16.01454817899026 6.0729867146623215 12.161918505942037 13.04433198915714 -1.497270207229119 -8.102133464235559 3.646662330418726 -3.335767487325378 12.759656534740179 -1.6624456324228896 7.162741689190563 -24.889747212923602 0.861838605557498 -0.1993312802423001 -0.04053866682790662 -0.12454792588601393 0.0515101917907685 0.4849809971113404 0.09587312422364758 0.26956131300078107 -0.23526549243511896 -0.05654512176633894 53.83652433999723 45.7203198322978 14.22812927704635 -24.92399719651663 -22.32230813221978 55.469359608264234 1.1296471212625245 15.652973332255417 3.9543115529958484 -0.05307569249287659 -0.26425927193585286 0.019228129771923043 0.49660106988023617 -0.23282041811438664 -0.06154806191060139 -0.23709742387571045 0.21616566883397167 0.04060307337734572 8.161165935458333 5.920964632984409 0.8221143854272625 -0.14887902072094308 -0.03178319140517008 -0.025236988694241763 2.653132981908328 1.2864565252183813 -0.12855392521571898 0.22673794789550517 -0.23817504629983863 -0.24228943486197793 10.342770191269071 0.5667245943763473 0.562093512675667 0.2762193333789419 -0.15173382635059687 -0.6079975065400302 2.2067705146944743 -0.7809762094171286 -0.28672579182843466 0.204476707203994 0.1597232266888077 0.2755788163812681 -61.938860148586954 29.209409853491664 -19.249044024605034 20.80442836277868 -15.247779189933581 -43.023337676248225 -1.480348200117001 -1.2768492238205238 -0.4385756780340688 -0.3925945777372785 0.4531360405189493 0.04381203498763523 0.21592650549131545 -0.0019131199782647043 0.006507889618552774 -0.3914464656264817 0.06393145108539204 -0.016991376220876094 -7.783494894170709 5.492669083342297 -0.19227089235291675 0.2929984668074451 0.004577293960966357 0.04163696658252996 -3.234757100350529 0.9628176163508474 0.18841154198716864 -0.15986500647493837 -0.19404908941464727 -0.06062110385461016 -10.455080699338884 0.8430842934788182 0.2968744924397216 0.357659280710574 0.00043747895242460575 0.09620161363404288 -2.6437813857175225 -0.7317136834718232 0.06143472345906149 -0.3402231951417066 -0.37772888445215735 -0.06572963178653013 -6.087262663801294 3.459078868827142 -7.810203495146398 -1.4931993077620858 41.63591110485978 2.7998048910320046 -10.146220398844553 -14.035567461323472 -29.62162201518569 -0.07888655047953165 -0.1999504528988176 0.12274287497506617 67.18938365792667 -56.21302377490605 59.079490245020324 2.3090967803016085 73.05821687207094 -2.5122174281510907 3.0872337654581274 -3.58396546270624 8.87431367066218
